<?xml version="1.0" encoding="UTF-8" standalone="no"?>
<svg
   xmlns:dc="http://purl.org/dc/elements/1.1/"
   xmlns:cc="http://creativecommons.org/ns#"
   xmlns:rdf="http://www.w3.org/1999/02/22-rdf-syntax-ns#"
   xmlns:svg="http://www.w3.org/2000/svg"
   xmlns="http://www.w3.org/2000/svg"
   xmlns:sodipodi="http://sodipodi.sourceforge.net/DTD/sodipodi-0.dtd"
   xmlns:inkscape="http://www.inkscape.org/namespaces/inkscape"
   version="1.1"
   x="0px"
   y="0px"
   viewBox="0 0 64 64"
   enable-background="new 0 0 100 100"
   xml:space="preserve"
   id="svg2"
   inkscape:version="0.91 r13725"
   sodipodi:docname="envmon.svg"
   width="64"
   height="64"
   inkscape:export-filename="/home/mex/Development/envmon/Mark_I/Pictures/envmon64.png"
   inkscape:export-xdpi="90"
   inkscape:export-ydpi="90"><metadata
     id="metadata16"><rdf:RDF><cc:Work
         rdf:about=""><dc:format>image/svg+xml</dc:format><dc:type
           rdf:resource="http://purl.org/dc/dcmitype/StillImage" /><dc:title /></cc:Work></rdf:RDF></metadata><defs
     id="defs14" /><sodipodi:namedview
     pagecolor="#ffffff"
     bordercolor="#666666"
     borderopacity="1"
     objecttolerance="10"
     gridtolerance="10"
     guidetolerance="10"
     inkscape:pageopacity="0"
     inkscape:pageshadow="2"
     inkscape:window-width="1231"
     inkscape:window-height="776"
     id="namedview12"
     showgrid="false"
     showborder="true"
     inkscape:zoom="9.4843749"
     inkscape:cx="14.392092"
     inkscape:cy="32"
     inkscape:window-x="49"
     inkscape:window-y="24"
     inkscape:window-maximized="1"
     inkscape:current-layer="svg2" /><g
     id="g4"
     transform="matrix(0.6992136,0,0,0.6992136,-3.7916082,-4.1057825)"
     style="fill:#00ba00;fill-opacity:1"><path
       d="M 74.488,72.223 C 89.962,56.755 93.59,5.872 93.59,5.872 c 0,0 -10.505,5.477 -27.287,6.917 C 50.478,14.148 35.822,16.38 27.234,24.968 13.98,38.225 10.663,57.093 18.207,70.427 26.511,57.397 60.655,38.805 60.655,38.805 36.148,56.331 26.574136,63.566068 9.7601356,87.518068 7.3693598,90.953945 9.4711974,100.97674 15.092,96.081 c 0,0 6.138,-11.085 11.474,-16.44 13.392,9.502 33.82,6.689 47.922,-7.418 z"
       id="path6"
       inkscape:connector-curvature="0"
       sodipodi:nodetypes="cccccccccc"
       style="fill:#00ba00;fill-opacity:1" /></g></svg>